<svg width="26" height="26" viewBox="0 0 26 26" fill="none" xmlns="http://www.w3.org/2000/svg">
<path fill-rule="evenodd" clip-rule="evenodd" d="M12.5041 2.45042C12.6754 2.34338 12.8733 2.28662 13.0752 2.28662C13.2772 2.28662 13.4751 2.34338 13.6464 2.45042L21.086 7.1002L13.0752 11.8125L5.06446 7.1002L12.5041 2.45042ZM3.38558 8.61313C3.37971 8.65923 3.37683 8.70567 3.37696 8.75214V17.3728C3.37696 17.5556 3.42344 17.7354 3.51204 17.8952C3.60064 18.0551 3.72844 18.1898 3.88342 18.2866L11.9976 23.3577V13.6789L3.38558 8.61313ZM14.1528 23.3577L22.267 18.2866C22.422 18.1898 22.5498 18.0551 22.6384 17.8952C22.727 17.7354 22.7735 17.5556 22.7735 17.3728V8.75214C22.7735 8.70545 22.7706 8.65911 22.7649 8.61313L14.1528 13.6778V23.3577Z" fill="#926A52"/>
</svg>
