<svg width="125" height="40" viewBox="0 0 125 40" fill="none" xmlns="http://www.w3.org/2000/svg">
<rect width="39.5217" height="39.5217" rx="19.7608" fill="#10BE56"/>
<path d="M20.3945 12.4414H17.7479L18.2162 13.9869H20.36C24.2931 13.9869 26.2596 15.8546 26.2596 19.5901C26.2596 21.4679 25.733 22.9184 24.6797 23.9418C23.6264 24.9651 22.1509 25.4768 20.253 25.4768H18.0989V25.4571H16.504L13.7193 12.4844L11.9473 12.4414L15.0749 27.0443L16.8458 27.0234H20.2392C22.6088 27.0234 24.5002 26.3406 25.9132 24.9748C27.3263 23.6091 28.0324 21.801 28.0317 19.5506C28.0278 14.8111 25.4821 12.4414 20.3945 12.4414Z" fill="black"/>
<path d="M18.5077 21.5733L16.542 12.4082H14.6982L16.7307 21.7202L18.5077 21.5733Z" fill="white"/>
<path d="M49.5692 14.3942C50.6978 14.3942 51.6879 14.6148 52.5395 15.056C53.4014 15.4972 54.0632 16.1282 54.5249 16.949C54.9969 17.7596 55.2329 18.7035 55.2329 19.7808C55.2329 20.8582 54.9969 21.8021 54.5249 22.6127C54.0632 23.413 53.4014 24.0337 52.5395 24.4749C51.6879 24.9161 50.6978 25.1367 49.5692 25.1367H45.8139V14.3942H49.5692ZM49.4922 23.3053C50.6208 23.3053 51.493 22.9974 52.1086 22.3818C52.7242 21.7662 53.032 20.8992 53.032 19.7808C53.032 18.6625 52.7242 17.7903 52.1086 17.1645C51.493 16.5283 50.6208 16.2103 49.4922 16.2103H47.9686V23.3053H49.4922ZM62.3863 25.1367L60.0162 20.9505H59.0004V25.1367H56.8457V14.3942H60.878C61.7091 14.3942 62.4171 14.543 63.0019 14.8405C63.5868 15.1278 64.0228 15.5228 64.3101 16.0256C64.6077 16.5181 64.7564 17.0721 64.7564 17.6877C64.7564 18.3957 64.5512 19.037 64.1408 19.6115C63.7304 20.1759 63.1199 20.5658 62.3093 20.7812L64.8796 25.1367H62.3863ZM59.0004 19.3345H60.8011C61.3859 19.3345 61.822 19.196 62.1093 18.919C62.3966 18.6317 62.5402 18.2367 62.5402 17.7339C62.5402 17.2414 62.3966 16.8618 62.1093 16.595C61.822 16.318 61.3859 16.1795 60.8011 16.1795H59.0004V19.3345ZM71.6918 25.2445C70.6862 25.2445 69.7628 25.0085 68.9215 24.5365C68.0801 24.0645 67.4132 23.413 66.9207 22.5819C66.4282 21.7406 66.182 20.7915 66.182 19.7347C66.182 18.6881 66.4282 17.7493 66.9207 16.9182C67.4132 16.0769 68.0801 15.4202 68.9215 14.9482C69.7628 14.4763 70.6862 14.2403 71.6918 14.2403C72.7075 14.2403 73.631 14.4763 74.462 14.9482C75.3034 15.4202 75.9652 16.0769 76.4474 16.9182C76.9399 17.7493 77.1861 18.6881 77.1861 19.7347C77.1861 20.7915 76.9399 21.7406 76.4474 22.5819C75.9652 23.413 75.3034 24.0645 74.462 24.5365C73.6207 25.0085 72.6973 25.2445 71.6918 25.2445ZM71.6918 23.3206C72.3382 23.3206 72.9076 23.177 73.4001 22.8897C73.8926 22.5922 74.2774 22.1715 74.5544 21.6277C74.8314 21.0839 74.9699 20.4529 74.9699 19.7347C74.9699 19.0164 74.8314 18.3906 74.5544 17.857C74.2774 17.3132 73.8926 16.8977 73.4001 16.6104C72.9076 16.3231 72.3382 16.1795 71.6918 16.1795C71.0454 16.1795 70.4708 16.3231 69.968 16.6104C69.4755 16.8977 69.0908 17.3132 68.8137 17.857C68.5367 18.3906 68.3982 19.0164 68.3982 19.7347C68.3982 20.4529 68.5367 21.0839 68.8137 21.6277C69.0908 22.1715 69.4755 22.5922 69.968 22.8897C70.4708 23.177 71.0454 23.3206 71.6918 23.3206ZM86.6229 17.7185C86.6229 18.2931 86.4844 18.8318 86.2074 19.3345C85.9406 19.8373 85.5148 20.2426 84.93 20.5504C84.3554 20.8582 83.6269 21.0121 82.7445 21.0121H80.9438V25.1367H78.7892V14.3942H82.7445C83.5756 14.3942 84.2836 14.5378 84.8684 14.8251C85.4532 15.1124 85.8893 15.5074 86.1766 16.0102C86.4741 16.5129 86.6229 17.0824 86.6229 17.7185ZM82.6522 19.273C83.2473 19.273 83.6885 19.1396 83.9757 18.8728C84.263 18.5958 84.4067 18.211 84.4067 17.7185C84.4067 16.672 83.8218 16.1487 82.6522 16.1487H80.9438V19.273H82.6522Z" fill="#242424"/>
<path d="M96.6944 14.3942L93.0623 21.3968V25.1367H90.9076V21.3968L87.26 14.3942H89.6917L92.0003 19.3037L94.2935 14.3942H96.6944ZM102.924 25.2445C101.918 25.2445 100.995 25.0085 100.153 24.5365C99.3119 24.0645 98.645 23.413 98.1525 22.5819C97.66 21.7406 97.4138 20.7915 97.4138 19.7347C97.4138 18.6881 97.66 17.7493 98.1525 16.9182C98.645 16.0769 99.3119 15.4202 100.153 14.9482C100.995 14.4763 101.918 14.2403 102.924 14.2403C103.939 14.2403 104.863 14.4763 105.694 14.9482C106.535 15.4202 107.197 16.0769 107.679 16.9182C108.172 17.7493 108.418 18.6881 108.418 19.7347C108.418 20.7915 108.172 21.7406 107.679 22.5819C107.197 23.413 106.535 24.0645 105.694 24.5365C104.853 25.0085 103.929 25.2445 102.924 25.2445ZM102.924 23.3206C103.57 23.3206 104.139 23.177 104.632 22.8897C105.124 22.5922 105.509 22.1715 105.786 21.6277C106.063 21.0839 106.202 20.4529 106.202 19.7347C106.202 19.0164 106.063 18.3906 105.786 17.857C105.509 17.3132 105.124 16.8977 104.632 16.6104C104.139 16.3231 103.57 16.1795 102.924 16.1795C102.277 16.1795 101.703 16.3231 101.2 16.6104C100.707 16.8977 100.323 17.3132 100.046 17.857C99.7685 18.3906 99.63 19.0164 99.63 19.7347C99.63 20.4529 99.7685 21.0839 100.046 21.6277C100.323 22.1715 100.707 22.5922 101.2 22.8897C101.703 23.177 102.277 23.3206 102.924 23.3206ZM112.145 14.3942V21.0429C112.145 21.7713 112.335 22.3305 112.714 22.7204C113.094 23.1 113.627 23.2899 114.315 23.2899C115.013 23.2899 115.551 23.1 115.931 22.7204C116.311 22.3305 116.5 21.7713 116.5 21.0429V14.3942H118.67V21.0275C118.67 21.9406 118.47 22.7153 118.07 23.3514C117.68 23.9773 117.152 24.4493 116.485 24.7673C115.828 25.0854 115.095 25.2445 114.284 25.2445C113.484 25.2445 112.755 25.0854 112.099 24.7673C111.452 24.4493 110.939 23.9773 110.56 23.3514C110.18 22.7153 109.99 21.9406 109.99 21.0275V14.3942H112.145Z" fill="#10BE56"/>
<path d="M120.919 12V12.3185H120.147V15H119.777V12.3185H119V12H120.919Z" fill="#242424"/>
<path d="M124.25 12.0215V15H123.88V12.7791L122.945 15H122.684L121.745 12.7747V15H121.375V12.0215H121.773L122.815 14.4835L123.856 12.0215H124.25Z" fill="#242424"/>
</svg>
