<svg width="266" height="84" viewBox="0 0 266 84" fill="none" xmlns="http://www.w3.org/2000/svg">
<rect width="83.3081" height="83.3081" rx="41.654" fill="#10BE56"/>
<path d="M42.9903 26.2217H37.4116L38.3988 29.4794H42.9176C51.2081 29.4794 55.3534 33.4165 55.3534 41.2905C55.3534 45.2487 54.2433 48.3064 52.0231 50.4635C49.8029 52.6206 46.6926 53.6992 42.692 53.6992H38.1514V53.6575H34.7895L28.9197 26.3124L25.1843 26.2217L31.777 57.0034L35.5099 56.9593H42.6629C47.6579 56.9593 51.6447 55.5199 54.6233 52.641C57.6019 49.7622 59.0904 45.9509 59.0888 41.2072C59.0807 31.2169 53.7145 26.2217 42.9903 26.2217Z" fill="black"/>
<path d="M39.0132 45.473L34.8697 26.1538H30.9832L35.2675 45.7827L39.0132 45.473Z" fill="white"/>
<path d="M104.488 30.5074C106.867 30.5074 108.954 30.9724 110.749 31.9024C112.565 32.8324 113.96 34.1625 114.934 35.8927C115.929 37.6013 116.426 39.591 116.426 41.862C116.426 44.1329 115.929 46.1226 114.934 47.8312C113.96 49.5182 112.565 50.8267 110.749 51.7567C108.954 52.6867 106.867 53.1517 104.488 53.1517H96.5717V30.5074H104.488ZM104.325 49.2911C106.704 49.2911 108.543 48.6423 109.84 47.3446C111.138 46.0469 111.787 44.2194 111.787 41.862C111.787 39.5045 111.138 37.6662 109.84 36.3469C108.543 35.006 106.704 34.3355 104.325 34.3355H101.114V49.2911H104.325ZM131.505 53.1517L126.509 44.3275H124.368V53.1517H119.826V30.5074H128.326C130.077 30.5074 131.57 30.821 132.803 31.4482C134.035 32.0538 134.954 32.8864 135.56 33.9462C136.187 34.9843 136.501 36.1522 136.501 37.4499C136.501 38.9422 136.068 40.294 135.203 41.5051C134.338 42.6946 133.051 43.5165 131.343 43.9707L136.76 53.1517H131.505ZM124.368 40.9212H128.163C129.396 40.9212 130.315 40.6292 130.921 40.0452C131.526 39.4397 131.829 38.607 131.829 37.5472C131.829 36.5091 131.526 35.7089 130.921 35.1465C130.315 34.5626 129.396 34.2706 128.163 34.2706H124.368V40.9212ZM151.12 53.3788C149 53.3788 147.054 52.8813 145.28 51.8864C143.507 50.8916 142.101 49.5182 141.063 47.7664C140.025 45.9929 139.506 43.9923 139.506 41.7646C139.506 39.5586 140.025 37.5797 141.063 35.8278C142.101 34.0543 143.507 32.6702 145.28 31.6753C147.054 30.6804 149 30.183 151.12 30.183C153.261 30.183 155.208 30.6804 156.959 31.6753C158.733 32.6702 160.128 34.0543 161.144 35.8278C162.183 37.5797 162.702 39.5586 162.702 41.7646C162.702 43.9923 162.183 45.9929 161.144 47.7664C160.128 49.5182 158.733 50.8916 156.959 51.8864C155.186 52.8813 153.239 53.3788 151.12 53.3788ZM151.12 49.3236C152.482 49.3236 153.683 49.0208 154.721 48.4152C155.759 47.788 156.57 46.9012 157.154 45.755C157.738 44.6087 158.03 43.2786 158.03 41.7646C158.03 40.2507 157.738 38.9314 157.154 37.8068C156.57 36.6605 155.759 35.7846 154.721 35.179C153.683 34.5734 152.482 34.2706 151.12 34.2706C149.757 34.2706 148.546 34.5734 147.486 35.179C146.448 35.7846 145.637 36.6605 145.053 37.8068C144.469 38.9314 144.177 40.2507 144.177 41.7646C144.177 43.2786 144.469 44.6087 145.053 45.755C145.637 46.9012 146.448 47.788 147.486 48.4152C148.546 49.0208 149.757 49.3236 151.12 49.3236ZM182.593 37.5148C182.593 38.7259 182.301 39.8614 181.717 40.9212C181.155 41.9809 180.258 42.8352 179.025 43.4841C177.814 44.1329 176.278 44.4573 174.418 44.4573H170.622V53.1517H166.081V30.5074H174.418C176.17 30.5074 177.662 30.8102 178.895 31.4157C180.128 32.0213 181.047 32.854 181.653 33.9138C182.28 34.9735 182.593 36.1739 182.593 37.5148ZM174.223 40.7914C175.478 40.7914 176.408 40.5102 177.013 39.9479C177.619 39.364 177.922 38.5529 177.922 37.5148C177.922 35.3087 176.689 34.2057 174.223 34.2057H170.622V40.7914H174.223Z" fill="#242424"/>
<path d="M203.823 30.5074L196.167 45.2683V53.1517H191.625V45.2683L183.936 30.5074H189.062L193.928 40.8563L198.762 30.5074H203.823ZM216.954 53.3788C214.834 53.3788 212.888 52.8813 211.114 51.8864C209.341 50.8916 207.935 49.5182 206.897 47.7664C205.859 45.9929 205.34 43.9923 205.34 41.7646C205.34 39.5586 205.859 37.5797 206.897 35.8278C207.935 34.0543 209.341 32.6702 211.114 31.6753C212.888 30.6804 214.834 30.183 216.954 30.183C219.095 30.183 221.041 30.6804 222.793 31.6753C224.567 32.6702 225.962 34.0543 226.978 35.8278C228.016 37.5797 228.535 39.5586 228.535 41.7646C228.535 43.9923 228.016 45.9929 226.978 47.7664C225.962 49.5182 224.567 50.8916 222.793 51.8864C221.02 52.8813 219.073 53.3788 216.954 53.3788ZM216.954 49.3236C218.316 49.3236 219.517 49.0208 220.555 48.4152C221.593 47.788 222.404 46.9012 222.988 45.755C223.572 44.6087 223.864 43.2786 223.864 41.7646C223.864 40.2507 223.572 38.9314 222.988 37.8068C222.404 36.6605 221.593 35.7846 220.555 35.179C219.517 34.5734 218.316 34.2706 216.954 34.2706C215.591 34.2706 214.38 34.5734 213.32 35.179C212.282 35.7846 211.471 36.6605 210.887 37.8068C210.303 38.9314 210.011 40.2507 210.011 41.7646C210.011 43.2786 210.303 44.6087 210.887 45.755C211.471 46.9012 212.282 47.788 213.32 48.4152C214.38 49.0208 215.591 49.3236 216.954 49.3236ZM236.391 30.5074V44.5222C236.391 46.0578 236.791 47.2365 237.592 48.0583C238.392 48.8586 239.517 49.2587 240.966 49.2587C242.436 49.2587 243.572 48.8586 244.372 48.0583C245.172 47.2365 245.572 46.0578 245.572 44.5222V30.5074H250.147V44.4897C250.147 46.4146 249.725 48.0475 248.881 49.3884C248.06 50.7077 246.946 51.7026 245.54 52.3731C244.156 53.0435 242.609 53.3788 240.901 53.3788C239.214 53.3788 237.678 53.0435 236.294 52.3731C234.931 51.7026 233.85 50.7077 233.05 49.3884C232.25 48.0475 231.849 46.4146 231.849 44.4897V30.5074H236.391Z" fill="#10BE56"/>
<path d="M257.141 24.3002V25.098H255.205V31.8147H254.278V25.098H252.333V24.3002H257.141Z" fill="#242424"/>
<path d="M265.483 24.3541V31.8147H264.556V26.2516L262.213 31.8147H261.561L259.209 26.2408V31.8147H258.282V24.3541H259.28L261.887 30.521L264.495 24.3541H265.483Z" fill="#242424"/>
</svg>
