<svg width="205" height="248" viewBox="0 0 205 248" fill="none" xmlns="http://www.w3.org/2000/svg">
<path d="M103.637 110.812C86.5125 95.056 85.4032 68.4006 101.16 51.2759L128.187 21.9007C143.944 4.77593 170.599 3.66664 187.724 19.423C204.849 35.1793 205.958 61.8346 190.202 78.9594L163.174 108.335C147.417 125.459 120.762 126.569 103.637 110.812Z" fill="url(#paint0_linear_17110_11920)"/>
<path d="M104.845 139.95C121.3 123.495 147.978 123.495 164.433 139.95L192.659 168.176C209.114 184.631 209.114 211.309 192.659 227.764C176.204 244.219 149.526 244.219 133.071 227.764L104.845 199.538C88.3903 183.083 88.3903 156.405 104.845 139.95Z" fill="url(#paint1_linear_17110_11920)"/>
<path d="M45.0212 247.659C68.2918 247.659 87.1563 228.794 87.1563 205.524V176.232C87.1563 159.818 77.6441 144.852 62.6308 138.215C55.6525 135.131 48.5938 132.092 43.5781 130.129C29.6573 124.682 0 123.471 0 123.471L3.58663e-06 205.524C4.60382e-06 228.794 18.8645 247.659 42.135 247.659H45.0212Z" fill="url(#paint2_linear_17110_11920)"/>
<path d="M45.0212 0C68.2918 0 87.1563 18.8645 87.1563 42.135V71.4265C87.1563 87.841 77.6441 102.807 62.6308 109.444C55.6525 112.528 48.5938 115.567 43.5781 117.53C29.6573 122.977 0 124.188 0 124.188L3.58663e-06 42.135C4.60382e-06 18.8645 18.8645 0 42.135 0H45.0212Z" fill="url(#paint3_linear_17110_11920)"/>
<circle cx="35.7095" cy="41.7622" r="12.7103" fill="black"/>
<circle cx="32.0789" cy="38.1305" r="4.23677" fill="#D9D9D9"/>
<circle cx="162.812" cy="41.7622" r="12.7103" fill="black"/>
<circle cx="159.18" cy="38.1305" r="4.23677" fill="#D9D9D9"/>
<path d="M133.76 79.2875C142.786 79.2875 150.102 71.971 150.102 62.9456H117.418C117.418 71.971 124.735 79.2875 133.76 79.2875Z" fill="black"/>
<defs>
<linearGradient id="paint0_linear_17110_11920" x1="196.102" y1="115.603" x2="3.76163e-06" y2="119.235" gradientUnits="userSpaceOnUse">
<stop stop-color="#C57AFF"/>
<stop offset="1" stop-color="#12B76A"/>
</linearGradient>
<linearGradient id="paint1_linear_17110_11920" x1="196.102" y1="115.603" x2="3.76163e-06" y2="119.235" gradientUnits="userSpaceOnUse">
<stop stop-color="#C57AFF"/>
<stop offset="1" stop-color="#12B76A"/>
</linearGradient>
<linearGradient id="paint2_linear_17110_11920" x1="196.102" y1="115.603" x2="3.76163e-06" y2="119.235" gradientUnits="userSpaceOnUse">
<stop stop-color="#C57AFF"/>
<stop offset="1" stop-color="#12B76A"/>
</linearGradient>
<linearGradient id="paint3_linear_17110_11920" x1="196.102" y1="115.603" x2="3.76163e-06" y2="119.235" gradientUnits="userSpaceOnUse">
<stop stop-color="#C57AFF"/>
<stop offset="1" stop-color="#12B76A"/>
</linearGradient>
</defs>
</svg>
