<svg width="40" height="52" viewBox="0 0 40 52" fill="none" xmlns="http://www.w3.org/2000/svg">
<rect x="7" y="6.5" width="26.1585" height="26.1585" rx="13.0793" fill="#10BE56"/>
<path d="M20.4984 14.734H18.7467L19.0566 15.7569H20.4755C23.0788 15.7569 24.3804 16.9931 24.3804 19.4655C24.3804 20.7084 24.0318 21.6685 23.3347 22.3459C22.6375 23.0232 21.6609 23.3618 20.4047 23.3618H18.979V23.3488H17.9234L16.0802 14.7625L14.9073 14.734L16.9774 24.3994L18.1496 24.3855H20.3956C21.964 24.3855 23.2158 23.9335 24.1511 23.0296C25.0864 22.1256 25.5538 20.9289 25.5533 19.4394C25.5507 16.3025 23.8658 14.734 20.4984 14.734Z" fill="black"/>
<path d="M19.2496 20.7785L17.9486 14.7123H16.7282L18.0735 20.8758L19.2496 20.7785Z" fill="white"/>
<path d="M19.8125 0C8.97578 0 0.3125 8.66328 0.3125 19.5C0.3125 23.2477 1.42969 26.1422 3.36953 29.0773L17.7609 50.9133C18.1977 51.5734 18.9492 52 19.8125 52C20.6758 52 21.4375 51.5633 21.8641 50.9133L36.2555 29.0773C38.1953 26.1422 39.3125 23.2477 39.3125 19.5C39.3125 8.66328 30.6492 0 19.8125 0ZM19.8125 34.6531C11.4336 34.6531 4.64922 27.8586 4.64922 19.4695C4.64922 11.0906 11.4437 4.28594 19.8125 4.28594C28.1914 4.28594 34.9758 11.0805 34.9758 19.4695C34.9758 27.8586 28.1914 34.6531 19.8125 34.6531Z" fill="#10BE56"/>
</svg>
