<svg width="19" height="25" viewBox="0 0 19 25" fill="none" xmlns="http://www.w3.org/2000/svg">
<path d="M17.565 15.4283C16.7536 17.235 15.6602 18.8337 14.3795 20.3077C13.2589 21.5973 12.0348 22.7779 10.6401 23.7726C10.3627 23.9704 10.0776 24.1567 9.76937 24.3049C9.55532 24.4078 9.34986 24.4037 9.13494 24.294C8.32368 23.8798 7.62252 23.3116 6.94273 22.7179C4.97098 20.9959 3.29024 19.0294 2.0111 16.7371C1.05176 15.018 0.406732 13.1973 0.198186 11.2223C-0.323976 6.27729 2.99783 1.9044 7.76126 1.02673C11.4855 0.340536 15.1985 1.91571 17.2742 5.12033C18.4809 6.98336 18.9277 9.0274 18.7187 11.2273C18.5799 12.6885 18.1795 14.0767 17.565 15.4283ZM14.7367 12.9642C15.9093 11.1086 16.1168 9.14704 15.3027 7.11198C14.2534 4.48881 11.5208 2.851 8.62287 3.24717C6.74466 3.50393 5.25189 4.42167 4.21616 5.98955C2.96723 7.88017 2.79686 9.91703 3.67098 12.0154C4.75518 14.6181 7.6331 16.2153 10.3992 15.7569C12.2275 15.454 13.6666 14.5276 14.7367 12.9642Z" fill="#10BE56"/>
<path d="M13.7344 12.3309C12.4142 12.8996 11.1124 13.4586 9.81156 14.0197C9.57859 14.1202 9.34679 14.124 9.11574 14.0248C7.83883 13.4769 6.56439 12.9232 5.28524 12.3806C4.94302 12.2354 4.79529 11.9901 4.79593 11.629C4.79848 10.2015 4.79927 8.77396 4.79561 7.34647C4.79468 6.98177 4.94882 6.73842 5.289 6.59712C6.56381 6.06764 7.83775 5.53594 9.10733 4.9941C9.36283 4.88506 9.59509 4.8754 9.84917 4.98458C11.1343 5.53684 12.4228 6.08136 13.7086 6.63198C13.9827 6.74934 14.1166 6.97385 14.1173 7.2657C14.121 8.74845 14.1215 10.2312 14.1168 11.714C14.116 11.98 13.9947 12.1913 13.7344 12.3309ZM12.2334 8.47602C11.9616 8.54341 11.8809 8.72043 11.9035 8.98918C11.9156 9.13309 11.9815 9.32635 11.8075 9.41701C11.6177 9.51595 11.4208 9.62037 11.1713 9.62601C11.1593 9.40573 11.148 9.19877 11.1344 8.95114C10.7507 9.11369 10.4016 9.27249 10.0439 9.40857C9.85742 9.47951 9.80166 9.59008 9.80309 9.78248C9.81094 10.8402 9.80622 11.898 9.80872 12.9558C9.80892 13.0423 9.77657 13.1429 9.88385 13.2168C9.92779 13.2056 9.98246 13.1989 10.0311 13.178C11.0871 12.7252 12.1417 12.2692 13.1986 11.8184C13.3657 11.7471 13.4265 11.6383 13.4253 11.4566C13.4188 10.3988 13.423 9.34101 13.4211 8.28323C13.4209 8.1963 13.4487 8.09471 13.3154 8.01931C12.9802 8.1605 12.6261 8.30968 12.2334 8.47602ZM8.07029 6.98129C7.98588 6.94499 7.89312 6.92101 7.81842 6.87038C7.35875 6.55881 6.9032 6.57955 6.43705 6.85854C6.30433 6.93798 6.14883 6.97841 6.00783 7.04527C5.91246 7.09049 5.76337 7.09734 5.75501 7.22714C5.74522 7.37898 5.90288 7.39677 6.00647 7.44039C7.07368 7.88974 8.14515 8.32908 9.2089 8.78642C9.41462 8.87487 9.58567 8.87625 9.7814 8.78035C10.1227 8.61313 10.4907 8.49996 10.8166 8.3016C10.8223 8.26945 10.828 8.23729 10.8337 8.20513C9.92511 7.80339 9.01649 7.40165 8.07029 6.98129ZM8.36894 6.3622C9.23677 6.74162 10.1303 7.07276 10.9641 7.51612C11.6021 7.85536 12.1634 7.88167 12.7631 7.50384C12.9119 7.41008 13.1176 7.41159 13.2267 7.24424C13.2009 7.17613 13.1559 7.14715 13.104 7.12507C11.9451 6.63178 10.7862 6.13848 9.62732 5.64503C9.54907 5.61172 9.47133 5.59358 9.3876 5.62915C9.04916 5.77289 8.707 5.90838 8.37283 6.06137C8.23935 6.12248 8.15475 6.22494 8.36894 6.3622Z" fill="#10BE56"/>
</svg>
