<svg width="22" height="20" viewBox="0 0 22 20" fill="none" xmlns="http://www.w3.org/2000/svg">
<path d="M1.41428 9.78769C1.50896 9.58094 1.68994 9.24028 2.00937 8.64132C2.15491 8.36632 2.3185 8.06234 2.48596 7.75H1.01884C0.455984 7.75 0 8.20598 0 8.7695C0 9.33174 0.455984 9.78769 1.01884 9.78769H1.41428Z" fill="#10BE56"/>
<path d="M20.0843 7.75H18.6172C18.7853 8.06234 18.9482 8.36632 19.0938 8.64132C19.4132 9.24024 19.5935 9.58094 19.6889 9.78769H20.0843C20.6472 9.78769 21.1031 9.3317 21.1031 8.7695C21.1031 8.20598 20.6472 7.75 20.0843 7.75Z" fill="#10BE56"/>
<path d="M1.62305 18.6193C1.62305 19.3779 2.23875 19.993 2.99673 19.993C3.75537 19.993 4.36979 19.3779 4.36979 18.6193V17.3203H1.62305V18.6193Z" fill="#10BE56"/>
<path d="M16.7324 18.6193C16.7324 19.3779 17.3481 19.993 18.1068 19.993C18.8654 19.993 19.4804 19.3779 19.4804 18.6193V17.3203H16.7324V18.6193Z" fill="#10BE56"/>
<path d="M19.2854 10.0398C19.3549 10.0598 16.7428 5.26575 16.6178 5.00687C16.2881 4.3197 15.4728 3.90625 14.678 3.90625C13.7597 3.90625 11.2016 3.90625 11.2016 3.90625C11.2016 3.90625 7.34524 3.90625 6.42626 3.90625C5.6309 3.90625 4.81752 4.3197 4.48712 5.00687C4.36219 5.26575 1.75068 10.0598 1.8196 10.0398C1.8196 10.0398 0.974649 10.8822 0.910227 10.9492C0.55473 11.3317 0.580491 11.6621 0.580491 11.9925C0.580491 11.9925 0.580491 15.0961 0.580491 15.8077C0.580491 16.52 0.706739 16.9096 1.54654 16.9096H19.5584C20.3982 16.9096 20.5257 16.52 20.5257 15.8077C20.5257 15.0961 20.5257 11.9925 20.5257 11.9925C20.5257 11.6621 20.5502 11.3318 20.1934 10.9492C20.1316 10.8822 19.2854 10.0398 19.2854 10.0398ZM3.98098 8.56893C3.98098 8.56893 5.65863 5.54718 5.75718 5.34951C5.9272 5.0114 6.41023 4.76666 6.90417 4.76666H14.2009C14.6955 4.76666 15.1778 5.0114 15.3478 5.34951C15.447 5.54722 17.1247 8.56893 17.1247 8.56893C17.2792 8.84714 17.1427 9.36495 16.6848 9.36495H4.42019C3.96227 9.36491 3.82641 8.84714 3.98098 8.56893ZM3.75684 15.2892C2.90546 15.2892 2.21508 14.5995 2.21508 13.7481C2.21508 12.8961 2.90546 12.2063 3.75684 12.2063C4.60822 12.2063 5.29799 12.8961 5.29799 13.7481C5.29799 14.5995 4.60822 15.2892 3.75684 15.2892ZM12.8928 15.7059C12.8928 15.8186 12.8014 15.91 12.6893 15.91H8.4163C8.30361 15.91 8.21215 15.8186 8.21215 15.7059V13.8234C8.21215 13.712 8.30361 13.6212 8.4163 13.6212H12.6894C12.8014 13.6212 12.8929 13.712 12.8929 13.8234V15.7059H12.8928ZM17.3482 15.2892C16.4968 15.2892 15.8057 14.5995 15.8057 13.7481C15.8057 12.8961 16.4968 12.2063 17.3482 12.2063C18.1995 12.2063 18.8899 12.8967 18.8899 13.7481C18.8899 14.5995 18.1995 15.2892 17.3482 15.2892Z" fill="#10BE56"/>
<path d="M6.30136 1.47417C6.30202 1.06006 6.63819 0.723895 7.05229 0.723235H14.0489C14.4623 0.723895 14.7985 1.06006 14.7992 1.47417V3.50089H15.5224V1.47417C15.5224 0.660132 14.8629 0.000659472 14.0489 0H7.05229C6.23826 0.000659472 5.57878 0.660132 5.57812 1.47417V3.50089H6.30136V1.47417Z" fill="#10BE56"/>
<path d="M8.04321 3.27307H8.40967C8.42772 3.27307 8.4393 3.2621 8.4393 3.24537V1.76411C8.4393 1.75253 8.44573 1.74672 8.45604 1.74672H8.95324C8.96997 1.74672 8.98287 1.73575 8.98287 1.71902V1.41117C8.98287 1.39444 8.96997 1.38281 8.95324 1.38281H7.50034C7.48228 1.38281 7.4707 1.39439 7.4707 1.41117V1.71902C7.4707 1.73575 7.48228 1.74672 7.50034 1.74672H7.99688C8.00846 1.74672 8.01427 1.75253 8.01427 1.76411V3.24537C8.01423 3.2621 8.02581 3.27307 8.04321 3.27307Z" fill="#10BE56"/>
<path d="M9.78631 1.39062C9.76571 1.39062 9.75412 1.40221 9.74831 1.41898L9.07272 3.25314C9.06629 3.26987 9.07272 3.28084 9.09205 3.28084H9.47137C9.49132 3.28084 9.50295 3.27247 9.50872 3.25314L9.61885 2.92213H10.3067L10.4187 3.25314C10.4252 3.27247 10.4368 3.28084 10.4574 3.28084H10.8322C10.8528 3.28084 10.858 3.26987 10.8528 3.25314L10.1882 1.41898C10.1818 1.40225 10.1715 1.39062 10.1502 1.39062H9.78631ZM10.1907 2.575H9.73735L9.96017 1.91359H9.96853L10.1907 2.575Z" fill="#10BE56"/>
<path d="M11.1216 3.28084H11.5209C11.5467 3.28084 11.5583 3.27247 11.5699 3.25314L11.9215 2.67738H11.9306L12.2809 3.25314C12.2925 3.27247 12.3028 3.28084 12.3299 3.28084H12.7311C12.7523 3.28084 12.7575 3.2641 12.7497 3.24733L12.1598 2.30515L12.7079 1.42413C12.7175 1.4074 12.7111 1.39062 12.6911 1.39062H12.2899C12.2667 1.39062 12.2551 1.39899 12.2429 1.41898L11.9306 1.9297H11.9215L11.6098 1.41898C11.5988 1.39903 11.5873 1.39062 11.5634 1.39062H11.1616C11.1422 1.39062 11.1358 1.40736 11.1448 1.42413L11.6916 2.30515L11.1049 3.24733C11.0933 3.26406 11.1016 3.28084 11.1216 3.28084Z" fill="#10BE56"/>
<path d="M13.207 1.41898V3.25314C13.207 3.26987 13.2186 3.28084 13.2354 3.28084H13.6031C13.6199 3.28084 13.6315 3.26987 13.6315 3.25314V1.41898C13.6315 1.40225 13.6199 1.39062 13.6031 1.39062H13.2354C13.2186 1.39063 13.207 1.40221 13.207 1.41898Z" fill="#10BE56"/>
</svg>
