<svg width="107" height="36" viewBox="0 0 107 36" fill="none" xmlns="http://www.w3.org/2000/svg">
<rect width="35.2753" height="35.2753" rx="17.6376" fill="#10BE56"/>
<path d="M18.2028 11.1047H15.8406L16.2586 12.4842H18.172C21.6825 12.4842 23.4378 14.1512 23.4378 17.4853C23.4378 19.1614 22.9677 20.4561 22.0276 21.3695C21.0875 22.2829 19.7705 22.7396 18.0765 22.7396H16.1539V22.7219H14.7304L12.2449 11.1431L10.6632 11.1047L13.4548 24.1387L15.0354 24.12H18.0642C20.1792 24.12 21.8674 23.5105 23.1286 22.2915C24.3898 21.0725 25.0201 19.4587 25.0194 17.4501C25.016 13.2198 22.7438 11.1047 18.2028 11.1047Z" fill="black"/>
<path d="M16.5189 19.2556L14.7645 11.0752H13.1188L14.9329 19.3867L16.5189 19.2556Z" fill="white"/>
<path d="M44.2435 12.6741C45.2508 12.6741 46.1346 12.871 46.8947 13.2648C47.664 13.6586 48.2546 14.2218 48.6667 14.9544C49.088 15.6779 49.2986 16.5204 49.2986 17.482C49.2986 18.4436 49.088 19.2861 48.6667 20.0096C48.2546 20.7239 47.664 21.278 46.8947 21.6718C46.1346 22.0656 45.2508 22.2625 44.2435 22.2625H40.8917V12.6741H44.2435ZM44.1748 20.6278C45.1822 20.6278 45.9606 20.353 46.5101 19.8036C47.0595 19.2541 47.3343 18.4802 47.3343 17.482C47.3343 16.4838 47.0595 15.7054 46.5101 15.1468C45.9606 14.579 45.1822 14.2951 44.1748 14.2951H42.8148V20.6278H44.1748ZM55.6835 22.2625L53.568 18.526H52.6614V22.2625H50.7382V12.6741H54.3373C55.0791 12.6741 55.711 12.8069 56.233 13.0725C56.755 13.3289 57.1442 13.6815 57.4006 14.1302C57.6662 14.5698 57.799 15.0643 57.799 15.6138C57.799 16.2457 57.6158 16.8181 57.2495 17.3309C56.8832 17.8346 56.3383 18.1826 55.6148 18.3749L57.9089 22.2625H55.6835ZM52.6614 17.0837H54.2686C54.7906 17.0837 55.1798 16.96 55.4362 16.7128C55.6926 16.4563 55.8209 16.1038 55.8209 15.655C55.8209 15.2154 55.6926 14.8766 55.4362 14.6385C55.1798 14.3912 54.7906 14.2676 54.2686 14.2676H52.6614V17.0837ZM63.9891 22.3586C63.0916 22.3586 62.2674 22.148 61.5165 21.7267C60.7655 21.3055 60.1703 20.7239 59.7307 19.9821C59.2911 19.2312 59.0713 18.3841 59.0713 17.4408C59.0713 16.5067 59.2911 15.6688 59.7307 14.927C60.1703 14.176 60.7655 13.5899 61.5165 13.1687C62.2674 12.7474 63.0916 12.5368 63.9891 12.5368C64.8958 12.5368 65.72 12.7474 66.4618 13.1687C67.2127 13.5899 67.8034 14.176 68.2338 14.927C68.6734 15.6688 68.8932 16.5067 68.8932 17.4408C68.8932 18.3841 68.6734 19.2312 68.2338 19.9821C67.8034 20.7239 67.2127 21.3055 66.4618 21.7267C65.7108 22.148 64.8866 22.3586 63.9891 22.3586ZM63.9891 20.6415C64.5661 20.6415 65.0743 20.5133 65.5139 20.2569C65.9535 19.9913 66.2969 19.6158 66.5442 19.1305C66.7914 18.6451 66.9151 18.0819 66.9151 17.4408C66.9151 16.7998 66.7914 16.2411 66.5442 15.7649C66.2969 15.2796 65.9535 14.9087 65.5139 14.6522C65.0743 14.3958 64.5661 14.2676 63.9891 14.2676C63.4122 14.2676 62.8993 14.3958 62.4506 14.6522C62.011 14.9087 61.6676 15.2796 61.4203 15.7649C61.1731 16.2411 61.0494 16.7998 61.0494 17.4408C61.0494 18.0819 61.1731 18.6451 61.4203 19.1305C61.6676 19.6158 62.011 19.9913 62.4506 20.2569C62.8993 20.5133 63.4122 20.6415 63.9891 20.6415ZM77.316 15.6413C77.316 16.1541 77.1924 16.6349 76.9451 17.0837C76.707 17.5324 76.327 17.8941 75.805 18.1689C75.2921 18.4436 74.6419 18.581 73.8543 18.581H72.2471V22.2625H70.324V12.6741H73.8543C74.5961 12.6741 75.228 12.8023 75.75 13.0588C76.272 13.3152 76.6612 13.6678 76.9176 14.1165C77.1832 14.5652 77.316 15.0735 77.316 15.6413ZM73.7719 17.0287C74.3031 17.0287 74.6969 16.9097 74.9533 16.6716C75.2097 16.4243 75.3379 16.0809 75.3379 15.6413C75.3379 14.7072 74.8159 14.2401 73.7719 14.2401H72.2471V17.0287H73.7719Z" fill="#242424"/>
<path d="M86.3054 12.6741L83.0635 18.9244V22.2625H81.1403V18.9244L77.8847 12.6741H80.0551L82.1156 17.0562L84.1624 12.6741H86.3054ZM91.8653 22.3586C90.9678 22.3586 90.1436 22.148 89.3926 21.7267C88.6417 21.3055 88.0464 20.7239 87.6068 19.9821C87.1673 19.2312 86.9475 18.3841 86.9475 17.4408C86.9475 16.5067 87.1673 15.6688 87.6068 14.927C88.0464 14.176 88.6417 13.5899 89.3926 13.1687C90.1436 12.7474 90.9678 12.5368 91.8653 12.5368C92.7719 12.5368 93.5961 12.7474 94.3379 13.1687C95.0888 13.5899 95.6795 14.176 96.1099 14.927C96.5495 15.6688 96.7693 16.5067 96.7693 17.4408C96.7693 18.3841 96.5495 19.2312 96.1099 19.9821C95.6795 20.7239 95.0888 21.3055 94.3379 21.7267C93.5869 22.148 92.7627 22.3586 91.8653 22.3586ZM91.8653 20.6415C92.4422 20.6415 92.9505 20.5133 93.39 20.2569C93.8296 19.9913 94.173 19.6158 94.4203 19.1305C94.6676 18.6451 94.7912 18.0819 94.7912 17.4408C94.7912 16.7998 94.6676 16.2411 94.4203 15.7649C94.173 15.2796 93.8296 14.9087 93.39 14.6522C92.9505 14.3958 92.4422 14.2676 91.8653 14.2676C91.2883 14.2676 90.7755 14.3958 90.3267 14.6522C89.8872 14.9087 89.5437 15.2796 89.2965 15.7649C89.0492 16.2411 88.9256 16.7998 88.9256 17.4408C88.9256 18.0819 89.0492 18.6451 89.2965 19.1305C89.5437 19.6158 89.8872 19.9913 90.3267 20.2569C90.7755 20.5133 91.2883 20.6415 91.8653 20.6415ZM100.096 12.6741V18.6085C100.096 19.2587 100.265 19.7578 100.604 20.1058C100.943 20.4446 101.419 20.614 102.033 20.614C102.655 20.614 103.136 20.4446 103.475 20.1058C103.814 19.7578 103.983 19.2587 103.983 18.6085V12.6741H105.92V18.5947C105.92 19.4098 105.742 20.1012 105.384 20.669C105.036 21.2276 104.565 21.6489 103.97 21.9328C103.383 22.2167 102.729 22.3586 102.005 22.3586C101.291 22.3586 100.641 22.2167 100.055 21.9328C99.4776 21.6489 99.0197 21.2276 98.6809 20.669C98.342 20.1012 98.1726 19.4098 98.1726 18.5947V12.6741H100.096Z" fill="#10BE56"/>
</svg>
